<svg xmlns="http://www.w3.org/2000/svg" xmlns:xlink="http://www.w3.org/1999/xlink" width="500" zoomAndPan="magnify" viewBox="0 0 375 374.999991" height="500" preserveAspectRatio="xMidYMid meet" version="1.0"><path stroke-linecap="butt" transform="matrix(0.75, 0, 0, 0.75, 0.0000045, 108.374993)" fill="none" stroke-linejoin="miter" d="M 34.890621 25.281261 L 5.093744 70.604181 L 34.432288 121.026059 L 63.765623 103.89585 L 44.973955 71.750014 L 63.30729 43.848971 Z M 155.317713 -13.906241 L 133.484378 31.41147 L 111.427085 -13.906241 L 75.499999 -13.906241 L 75.499999 163.770854 L 109.53646 163.770854 L 109.53646 59.546888 L 133.713544 109.109392 L 157.151046 60.520847 L 157.151046 163.770854 L 191.182298 163.770854 L 191.182298 -13.906241 Z M 263.500011 124.578143 C 263.500011 127.385435 261.151053 129.734393 258.343761 129.734393 L 242.583343 129.734393 C 239.317718 129.734393 236.96876 127.385435 236.96876 124.348976 L 236.96876 113.52085 L 202.937507 113.52085 L 202.937507 124.348976 C 202.937507 145.953144 220.755217 163.770854 242.583343 163.770854 L 258.343761 163.770854 C 279.885429 163.770854 297.531264 146.182311 297.531264 124.578143 L 297.531264 -13.906241 L 263.500011 -13.906241 Z M 378.692727 -13.906241 L 378.692727 53.244805 L 343.281267 53.244805 L 343.281267 -13.906241 L 309.250014 -13.906241 L 309.250014 163.770854 L 343.281267 163.770854 L 343.281267 87.281265 L 378.692727 87.281265 L 378.692727 163.770854 L 412.729188 163.770854 L 412.729188 -13.906241 Z M 453.817732 121.026059 L 483.151067 70.604181 L 453.359399 25.281261 L 424.937522 43.848971 L 443.276065 71.750014 L 424.479189 103.89585 Z M 453.817732 121.026059 " stroke="#e5ccfd" stroke-width="6.747395" stroke-opacity="1" stroke-miterlimit="4"/></svg>