<?xml version="1.0" standalone="no"?><svg xmlns="http://www.w3.org/2000/svg" viewBox="0 0 1440 320"><path fill="#E5CCFD" fill-opacity="1" d="M0,192L24,213.3C48,235,96,277,144,261.3C192,245,240,171,288,138.7C336,107,384,117,432,144C480,171,528,213,576,192C624,171,672,85,720,69.3C768,53,816,107,864,133.3C912,160,960,160,1008,165.3C1056,171,1104,181,1152,170.7C1200,160,1248,128,1296,101.3C1344,75,1392,53,1416,42.7L1440,32L1440,320L1416,320C1392,320,1344,320,1296,320C1248,320,1200,320,1152,320C1104,320,1056,320,1008,320C960,320,912,320,864,320C816,320,768,320,720,320C672,320,624,320,576,320C528,320,480,320,432,320C384,320,336,320,288,320C240,320,192,320,144,320C96,320,48,320,24,320L0,320Z"></path></svg>