<?xml version="1.0" standalone="no"?><svg xmlns="http://www.w3.org/2000/svg" viewBox="0 0 1440 320"><path fill="#9C27B0" fill-opacity="1" d="M0,64L12.6,101.3C25.3,139,51,213,76,218.7C101.1,224,126,160,152,149.3C176.8,139,202,181,227,197.3C252.6,213,278,203,303,213.3C328.4,224,354,256,379,261.3C404.2,267,429,245,455,234.7C480,224,505,224,531,213.3C555.8,203,581,181,606,181.3C631.6,181,657,203,682,224C707.4,245,733,267,758,261.3C783.2,256,808,224,834,208C858.9,192,884,192,909,208C934.7,224,960,256,985,229.3C1010.5,203,1036,117,1061,122.7C1086.3,128,1112,224,1137,256C1162.1,288,1187,256,1213,234.7C1237.9,213,1263,203,1288,213.3C1313.7,224,1339,256,1364,261.3C1389.5,267,1415,245,1427,234.7L1440,224L1440,320L1427.4,320C1414.7,320,1389,320,1364,320C1338.9,320,1314,320,1288,320C1263.2,320,1238,320,1213,320C1187.4,320,1162,320,1137,320C1111.6,320,1086,320,1061,320C1035.8,320,1011,320,985,320C960,320,935,320,909,320C884.2,320,859,320,834,320C808.4,320,783,320,758,320C732.6,320,707,320,682,320C656.8,320,632,320,606,320C581.1,320,556,320,531,320C505.3,320,480,320,455,320C429.5,320,404,320,379,320C353.7,320,328,320,303,320C277.9,320,253,320,227,320C202.1,320,177,320,152,320C126.3,320,101,320,76,320C50.5,320,25,320,13,320L0,320Z"></path></svg>