<?xml version="1.0" standalone="no"?><svg xmlns="http://www.w3.org/2000/svg" viewBox="0 0 1440 320"><path fill="#034e78" fill-opacity="1" d="M0,64L12.6,101.3C25.3,139,51,213,76,218.7C101.1,224,126,160,152,149.3C176.8,139,202,181,227,197.3C252.6,213,278,203,303,213.3C328.4,224,354,256,379,261.3C404.2,267,429,245,455,234.7C480,224,505,224,531,213.3C555.8,203,581,181,606,181.3C631.6,181,657,203,682,224C707.4,245,733,267,758,261.3C783.2,256,808,224,834,208C858.9,192,884,192,909,208C934.7,224,960,256,985,229.3C1010.5,203,1036,117,1061,122.7C1086.3,128,1112,224,1137,256C1162.1,288,1187,256,1213,234.7C1237.9,213,1263,203,1288,213.3C1313.7,224,1339,256,1364,261.3C1389.5,267,1415,245,1427,234.7L1440,224L1440,0L1427.4,0C1414.7,0,1389,0,1364,0C1338.9,0,1314,0,1288,0C1263.2,0,1238,0,1213,0C1187.4,0,1162,0,1137,0C1111.6,0,1086,0,1061,0C1035.8,0,1011,0,985,0C960,0,935,0,909,0C884.2,0,859,0,834,0C808.4,0,783,0,758,0C732.6,0,707,0,682,0C656.8,0,632,0,606,0C581.1,0,556,0,531,0C505.3,0,480,0,455,0C429.5,0,404,0,379,0C353.7,0,328,0,303,0C277.9,0,253,0,227,0C202.1,0,177,0,152,0C126.3,0,101,0,76,0C50.5,0,25,0,13,0L0,0Z"></path></svg>