<?xml version="1.0" standalone="no"?><svg xmlns="http://www.w3.org/2000/svg" viewBox="0 0 1440 320"><path fill="#034e78" fill-opacity="1" d="M0,192L24,213.3C48,235,96,277,144,261.3C192,245,240,171,288,138.7C336,107,384,117,432,144C480,171,528,213,576,192C624,171,672,85,720,69.3C768,53,816,107,864,133.3C912,160,960,160,1008,165.3C1056,171,1104,181,1152,170.7C1200,160,1248,128,1296,101.3C1344,75,1392,53,1416,42.7L1440,32L1440,0L1416,0C1392,0,1344,0,1296,0C1248,0,1200,0,1152,0C1104,0,1056,0,1008,0C960,0,912,0,864,0C816,0,768,0,720,0C672,0,624,0,576,0C528,0,480,0,432,0C384,0,336,0,288,0C240,0,192,0,144,0C96,0,48,0,24,0L0,0Z"></path></svg>